<svg xmlns="http://www.w3.org/2000/svg" viewBox="0 0 1063.39 1084.34"><defs><style>.cls-1,.cls-2{fill:#3d3d3d;}.cls-1{fill-rule:evenodd;}.cls-2{font-size:316px;font-family:Noteworthy-Light, Noteworthy;font-weight:300;}</style></defs><title>Asset 3</title><g id="Layer_2" data-name="Layer 2"><g id="Layer_1-2" data-name="Layer 1"><path class="cls-1" d="M221.34,656.36c.5,6-7.27,3,0,0Zm0,0c7.28-3.06-.5-6.07,0,0Zm10-90.1c-4.92-.24-19.85-13.6-20,0C226.49,575,247.75,567.13,231.35,566.26Zm-5,220.2c5.63-5.67-12.9-24.9-15-10-.23,1.38-.86,9,0,10C211.75,786.93,225.85,786.93,226.36,786.46Zm-55.07,70.08c1.38,1.37,7.6-2.43,5-5C174.93,850.15,168.7,853.94,171.29,856.54Zm-5-75.08c0,11.3,15.23-.48,10-5C173.61,774.12,166.3,779.37,166.3,781.46Zm15-180.14c26.56,5.42,5.93-15.2,0,0Zm5,20c6-7.19-6.37-15.75-5-20C145,597.49,177.11,632.33,186.31,621.33Zm-5,180.15c1.4,1.38,7.62-2.43,5-5C184.93,795.1,178.73,798.9,181.3,801.48Zm25-175.15c-1.37-1.39-12.36,2.64-10,5C197.72,632.72,208.69,628.7,206.32,626.33Zm20,140.12c.14.55,4.53-.43,5,0s-.58,4.78,0,5C259,782,219.74,746.62,226.36,766.45Zm-5,100.11c0,11.26,15.22-.51,10-5C228.66,859.19,221.34,864.44,221.34,866.56Zm0,20c1.36,1.4,7.59-2.41,5-5C225,880.18,218.74,884,221.34,886.56ZM206.32,271c-3,.31-5.92.76-5,5C184.3,279.09,215.25,287.67,206.32,271ZM286.4,626.33c-1.38-1.39-7.59,2.42-5,5C282.78,632.74,289,628.93,286.4,626.33Zm-10-10c-1.38-1.39-7.61,2.44-5,5C272.78,622.71,279,618.91,276.39,616.33ZM216.33,861.54c-1.38-1.38-12.39,2.62-10,5C207.7,867.9,218.71,863.88,216.33,861.54Zm-45-45c-1.38-1.39-7.57,2.4-5,5C167.68,822.89,173.9,819.1,171.29,816.5Zm45,75c-1.84,8.55,3.91,9.46,10,10C228.2,893.05,222.45,892.12,216.33,891.55Zm0,0c-3.08-7.26-6.05.53,0,0ZM176.31,276c3-6.69,16.6-23.07,5-25-8,15.88-31.58,23.85-20,45.05C174,300.79,172.54,284.31,176.31,276Zm-5,485.43c-9.55-2.34-21.53,15.4-20-5-6-4.88-12.64,7.81-10,10,1.91,1.55,12.14,5.48,10,10-1.49,3.16-13.86,6.94-20,5-4-1.25,5.35-6.8,5-5,.77-3.8-12.44-8.24-15-10-5.48,21.78,9.74,15.31,20,20,6.83,3.13.83,22.17,15,25C152.67,786.2,161.8,773.64,171.29,761.47ZM96.21,611.3c0,2.81,5,5.68,5,0C101.23,608.53,96.21,605.66,96.21,611.3Zm60.06,80.06c-.71.72-8.27.91-5,5,3.61,4.5,17.29-7.73,15-10C163,683.13,156.79,690.89,156.27,691.36Zm10-345.29c-3.29-3.24-9.51,4.52-10,5.05-.8.8-9.08,5.08-5,10C156.49,367.3,175.66,355.46,166.3,346.07Zm0,145.15c1.38,1.35,12.37-2.66,10-5C174.93,484.81,163.94,488.83,166.3,491.22ZM286.4,671.37c-6.76-9.37-22.15,2.89-20,5C269.67,679.69,288,675,286.4,671.37ZM91.22,506.24c-1.38-1.38-7.61,2.4-5,5C87.61,512.63,93.81,508.83,91.22,506.24ZM196.33,871.55c7.27-3.06-.53-6,0,0ZM96.21,571.29c-1.35-1.39-12.34,2.63-10,5C87.61,577.66,98.6,573.65,96.21,571.29Zm-5,55c1.38,1.39,7.61-2.42,5-5C94.83,620,88.65,623.75,91.22,626.33Zm10,10c1.4,1.39,7.61-2.41,5-5C104.86,630,98.64,633.74,101.23,636.34Zm40,70.06c15-1-4.77-20.78,0,0Zm-10,20c15,5,8.84-11.16,10-20-15.15.15-4.83-25.17-20-25C106.76,699.62,146.32,706.09,131.27,726.42Zm30,15s8.3-1.59,5-5c-2.33-2.41-30.51.49-35,5-.83.81.82,4.14,0,5-3.42,3.41-10-2.28-10,5,0,4.26,1.25,4.71,5,5-2.26-8.23,27.29-8.23,25,0C163.8,759.58,158.36,748.24,161.31,741.45Zm-40-195.17c1.1,9.44-5.66,11-5,20C130.19,574.3,130.08,544.66,121.26,546.28Zm20-90.11c-3.24-3.25-9.5,4.53-10,5-.7.71-8.29.88-5,5C129.86,470.69,143.56,458.45,141.26,456.17Zm-5,225.22c1.38,1.38,12.39-2.65,10-5C144.91,675,133.9,679,136.26,681.39Zm-10-35.07c10.24,10.27,23.74-20.78,5-20-.24,0,.24,4.75,0,5-3.3,3.29-5.62,2.34-5,10C126.34,642.1,125.76,645.85,126.25,646.32Zm50.06,80.1c-1.38-1.37-12.37,2.64-10,5C167.68,732.8,178.67,728.79,176.31,726.42ZM126.25,591.3c-1.38-1.38-7.58,2.41-5,5C122.64,597.68,128.85,593.89,126.25,591.3Zm675.6,20c1.38,1.39,7.57-2.41,5-5C805.47,604.92,799.25,608.74,801.85,611.3ZM776.83,256c1.38,1.39,7.59-2.43,5-5C780.45,249.61,774.25,253.43,776.83,256Zm-15,415.35c1.38,1.39,7.6-2.42,5-5C765.42,665,759.23,668.79,761.82,671.37Zm-60.07-5c0,2.75,5,5.67,5,0C706.75,663.58,701.75,660.69,701.75,666.38Zm100.1-150.15c1.38,1.4,7.57-2.4,5-5C805.47,509.86,799.25,513.66,801.85,516.23ZM251.36,926.59c1.38,1.38,7.59-2.43,5-5C255,920.21,248.77,924,251.36,926.59ZM551.64,831.5c-.92,10.9,4.07,15.94,15,15Q568,830.13,551.64,831.5ZM496.58,266c1.37,1.37,7.6-2.42,5-5C500.2,259.63,494,263.42,496.58,266Zm95.07-30c1.4,1.37,7.6-2.44,5-5C595.27,229.6,589.09,233.4,591.65,236ZM496.58,696.4c1.37,1.39,7.6-2.42,5-5C500.2,690,494,693.81,496.58,696.4Zm345.29-40c1.38,1.37,7.6-2.43,5-5C845.49,650,839.3,653.78,841.87,656.36Zm80.07,135.12c1.38,1.39,7.61-2.41,5-5C925.58,785.08,919.35,788.88,921.94,791.48ZM1012,196c-1.4-1.35-7.61,2.43-5,5C1008.41,202.36,1014.61,198.55,1012,196Zm-25,20c.94,11.67,20.59,4.4,20-5,.18,3.33-5.63-5.79-5-5-1.62-2.08-4-7.75-10-5-.65.3.55,4.44,0,5C988.69,209.26,986.4,208.36,987,216Zm-10,25c1.38,1.38,7.57-2.39,5-5C980.62,234.6,974.39,238.4,977,241ZM861.88,911.57c1.4,1.38,7.61-2.42,5-5C865.52,905.21,859.31,909,861.88,911.57Zm190.2-585.5c-1.66-.69.36-7.49-5-5-.64.31.55,4.42,0,5-16.71,17.38,24,20.64,15,0C1061.65,325.11,1053.24,326.58,1052.08,326.07ZM81.21,866.56c-3.78-3.36-15,2.28-15,5C66.22,884.84,89.08,873.42,81.21,866.56ZM1047.05,291c.57-3.28-3.22-18.93-5-20-1.62-1-13.15-.54-15,0-5.48,1.66-1.86,1.92-5,5-.67.66-4.56-.78-5,0-9.8,16.47,20.12,25,20,25C1035.1,301.53,1047.4,289,1047.05,291ZM446.54,736.41c5.63-.47,7.78,7.29,10,0C456.5,731.38,447.76,730.11,446.54,736.41Zm475.4-330.27c-1.38-1.39-7.58,2.41-5,5C918.33,412.5,924.54,408.7,921.94,406.14ZM992,801.48c-7.68,14.22-15.12,29.79-25,45-.8,1.23-3.56,2.87-5,5-5.29,7.93-8.24,14.51-15,25-1.78,2.78-4.69-.8-5,5-.17,2.87-7.85,12.89-10,15-2.75,2.69.78,4.7-5,5-2.23.09-13.79,8.22-15,10s1.63,8.7,0,10c-.92.72-4.24-.87-5,0-5.45,5.95-9,13.83-15,20-2.46,2.6-7.49,2.51-10,5s-2.54,7.72-5,10c-.88.8-4.15-.86-5,0s.85,4.16,0,5-4.18-.87-5,0c-.73.68.8,4.39,0,5-1.83,1.25-8.7-1.64-10,0-4.06,5-14.21,17.84-25,25-5.35,3.55-9.51,6.32-15,10-2.44,1.61-7.89,2.89-10,5-.73.68.82,4.39,0,5-1.82,1.25-8.66-1.64-10,0-.54.68.71,4.59,0,5-2.48,1.44-7.29-1.15-10,0-.26.09-3.08,4-5,5-5.76,2.95-8.38,8.38-15,10-3.07.77-7-1-10,0-1.77.59,0,4.76-5,5,.71,0-14.49,4.5-15,5s.74,4.62,0,5c-1.82,1-8.75-1.55-10,0-.47.57.6,4.76,0,5-2.74,1.23-7.07-.67-10,0-5.11,1.29-2.45,3.84-5,5-1.85.83-8.83-1.46-10,0-.34.44.47,4.86,0,5-8.64,2.62-24.37,3.17-35,5-12.1,2.08-23.33,3.27-35,5-11,1.63-16.33,2.54-35.05,5-6.29.8-13.85-1.64-20,0-1.29.31-.45,4.74-5,5-31.9,1.68-92.23,7-125.1-5-2.89-1.07-7.16,1.22-10,0-2-.87-.28-4.16-5-5-6-1.11-2.9,4.53-5,5-5.61,1.12-3.5-4.91-5-5-6.46-.48-13.66,1.17-20,0,.52.06-2.58-4.42-5-5-3.17-.77-6.85.73-10,0-7.13-1.61-9.09-4.19-15-5-2.83-.41-7.39,1.1-10,0-1.52-.66.17-6.84-5-5-.16.09-6.12,9.66-5,10-5.3-1.69-14.43-13-25.05-20-8.24-5.5-16.22-4.16-25-10-5.46-3.64-9.22-6.62-15-10-11.16-6.54-14.57-8-25-15-3.08-2-2.79-3.24-5-5-2.85-2.23.85-4.7-5-5-4.27-.21-11.07-7.57-15-10-3.18-2-6.7-2.73-10-5-6.6-4.54-12.86-10.06-20-15-4-2.75-9.75-9.74-15-10-4.87-.28-7.47-11.71-10-15-.65-.84-4.24.77-5,0s.81-4.15,0-5-4.17.88-5,0,.85-4.19,0-5-4.14.85-5,0,.85-4.16,0-5-4.19.82-5,0,.8-4.45,0-5c-1.83-1.26-8.71,1.65-10,0-.79-.94.85-4.09,0-5-2.33-2.54-2.54-7.56-5-10-.85-.83-4.18.83-5,0s.85-4.16,0-5-4.14.83-5,0,.86-4.15,0-5-4.28.84-5,0c-3.45-4.16-1.47-11.23-5-15-2-2.21-8.26-2.75-10-5-5.38-7-9-16.74-15-25-1.2-1.69-3.29-2.46-5-5-7.23-10.89-16.9-24.6-25-40-2.44-4.63-2.4-9-5-15-1-2.29-4.73.36-5-5,.06.71-4.5-14.53-5-15-.62-.64-4.61.69-5,0-1.41-2.61,1.17-7.28,0-10-.27-.62-3.88-2.5-5-5-6.6-14.67-13.52-35.14-20-55.07-2.28-6.95-2.8-9.13-5-15-.69-1.75,1.32-8.89,0-10-.4-.35-4.92.41-5,0-2.4-9.63-2.86-21.86-5-35.07-2.91-17.76-2.37-38.18-5-65.05-1.56-15.61-9-27.68-5-50,.85-4.7,4.38-7.78,5-15,1.13-12.93-1.56-28.05,0-40-.17,1.15,4.51-3,5-5,.78-3.14-.72-6.82,0-10,1.6-7.12,4.17-9.1,5-15-.17,1.25-5.65-1.79-5-5,.07-.33,4.53-1.42,5-5,1.38-10.47,3.18-12.61,5-20,.77-3.09-1-7,0-10,.56-1.78,4.72-.06,5-5,.21-4.1,4.74-5,5-10,.56-10.43,5.67-18.46,10-30,.65-1.77-1.36-8.9,0-10,.47-.42,4.83.47,5,0,3.21-9.47,2.2-22.24,10-30,2.81-2.83,2.58-1.08,5-5a77.84,77.84,0,0,0,5-10c.82-1.8-1.46-8.81,0-10,.57-.5,4.71.62,5,0,.86-1.82-1.47-8.83,0-10,.68-.55,4.57.73,5,0,2.89-5,5.91-13.88,10-20,1.87-2.79,4.69.79,5-5,.06-.91-.51-4.31,0-5,1.14-1.53,9.48-3.7,10-5,6-14.5-5.09-54.1,20-50,.41,0,1.1,4.79,5,5,6.52.36,20.62-20.6,25-25,7.2-7.2,17.29-13.33,25-20,3.94-3.43,5.85-12.12,10-15,4.8-3.34,10.63-1.74,15-5,6.89-5.14,13.44-8.43,20-15,.73-.75-.82-4.39,0-5,7.8-5.62,21-8.93,30-15,1.84-1.26,3.4-9.29,5-10,2.48-1.12,7.84,1.57,10,0,.83-.6-.75-4.27,0-5,4.14-4.17,12.18-5,20-10,1-.62,4.19.83,5,0,.52-.54-.62-4.72,0-5,2.79-1.18,7.06.72,10,0,5.5-1.38,16.48-9.34,25-15,5.05-3.36,28.14-10.24,40.05-15,1.77-.7,8.88,1.37,10,0,.43-.52-.55-4.81,0-5,1.78-.72,8.91,1.35,10,0,.49-.6-.62-4.73,0-5,1.83-.87,8.83,1.44,10,0,.43-.54-.58-4.76,0-5,4.26-1.73,10.75,1.81,15,0,1.45-.63,1.25-3.85,5-5,7.71-2.37,15.49-2.46,25-5,11.72-3.12,28-7,45-10,3.63-.64,17.61,2.37,20,0,.25-.29-.23-5,0-5,11.68-.46,24.14,6.17,40,5,6.06-.48,2.15-3.77,5-5s7.13,1.12,10,0c5.42-2.18,13.87-7.89,30-5,4.87.88,7.53,4.93,15,5-.19,0,1-5.86,5-5,1.22.27,0,5.86,5,5,.41-.11,1-4.83,5-5,6.24-.3,26.29,4.16,40,5,12.94.79,26.44-2.27,35,0,.24,0,2,4.22,5,5s7.31-1.23,10,0c2.29,1-.43,4.71,5,5,1,0,4.24-.51,5,0,1.81,1.25,3.42,9.28,5,10,2.28,1,8.14-1.57,10,0,.86.71-.78,4.22,0,5s4.18-.84,5,0-.85,4.2,0,5c4.23,4.26,6.53,4.42,10,10,1.14,1.81-1.58,8.71,0,10,4.59,3.75,6.14,5.64,10,10,1.42,1.64,8.63-1.65,10,0,.77.94-.86,4.21,0,5s4.15-.84,5,0c.61.62-.74,4.59,0,5,2.66,1.48,33.71,6.8,45,10,1.69.45,9-1.26,10,0,.32.38-.36,4.9,0,5,3.27.7,26.56-4.28,30,0,.33.37-.36,4.9,0,5,4.81,1,10.25-1.05,15,0,4.19.9,5.05,4.2,10,5,8.11,1.28,16.93-1.47,25,0,4.6.81,8,4.07,15,5,7.65,1,9.66-10.34,20,0,5.83,5.79,7.91,32.11-5,45-.33.33-10,5.44-10,5-.3,7,18.14,22.33,25,45,4.4,14.45,1,35.2,5,45s10.4,19.5,20,30c3.94,4.31,10.86,5.84,15,10,5.68,5.68,10.9,14.66,15,25,.69,1.79-1.4,8.89,0,10,.47.38,4.82-.52,5,0,4.72,13.54-.57,27.37,10,30,6.23,1.53,19.06-2.39,25,5-1.63,18.67-18.79,20-20,25-.33,1.3,4.55,10.51,5,15s-1.25,10.55,0,15c.39,1.36,4.77.34,5,5,.43,8.07,3.64,8.56,5,15,.91,4.12-2.9,22.62,0,25,.35.31,5-.31,5,0,.67,4-2.8,22.78,0,25,.32.27,5-.27,5,0,1,8.21-5.6,8.63-5,15,0-.28,4.8,1.64,5,5,1,19,5.71,82.23,0,105.09-1.28,5.12-3.84,2.46-5,5-.84,1.83,1.43,8.85,0,10-.41.29-4.94-.38-5,0-2.17,10,2.54,23.89,0,35,0-.1-4.33,2.25-5,5-.78,3.11.92,6.95,0,10-3,10-10.29,33.32-15,50-.49,1.69,1.22,9,0,10-4.53,3.73-7.77,9.05-10,15-.65,1.75,1.36,8.9,0,10-.51.42-4.75-.61-5,0-1.18,2.79.73,7,0,10-1.44,5.72-7.15,9.51-10,15-1,1.82,1.53,8.77,0,10C997.12,795.47,995.25,795.51,992,801.48ZM76.22,561.27c-2.09,2.53-5.22-2.77-5-5,.1-1.08,5-.14,5-5,0-3-1-5.94-5-5C61.2,559.29,65.3,574.48,76.22,561.27ZM992,706.4c9.93-30.23,13.88-57.67,20-95.1,2.85-17.26,7.94-30.85,5-55-1.06-8.66-5.24-10.81-5-20,.2-8.17,6.06-16.92,5-25,.17,1.09-4.48-3-5-5-2.81-11.24-7.91-24.2-10-40-.85-6.35,1.57-13.83,0-20,0-.2-4.27-2-5-5s1-7,0-10c-.56-1.75-4.74,0-5-5-.42-8.05-3.59-8.53-5-15-1-4.57,1.55-10.59,0-15-.63-1.86-4.71,0-5-5-.6-11.43-8.84-22.93-15-35-1.09-2.16-3.21-8.24-5-10-.73-.69-4.45.81-5,0-1.25-1.78,1.65-8.66,0-10-.71-.57-4.51.76-5,0-1.16-1.82,1.62-8.71,0-10-4.87-4-6.34-4.54-10-10-4-6.06-5.48-14.35-10-20-2.29-2.84-7.47-2.45-10-5-2.26-2.26-2.63-8-5-10-5.44-4.7-12.25-4.83-20-10.05-1-.64-4.18.86-5,0-.62-.58.73-4.57,0-5-5.59-3.1-10-2.24-15-5-2.63-1.45.68-4.69-5-5-5.5-.31-7.6-6.22-10-10-2-3.09-8.81-14-15-20-8.2-8-23.82-13.2-30-20-1.58-1.72.93-7.85,0-10a37.4,37.4,0,0,1-5-5c-.62-1-3.67-3-5-5-3.09-4.66-6.05-11.06-10-15-.8-.81-4.23.86-5,0-2-2.22-2.77-8.09-5-10-5.58-4.71-12.6-5.34-20-10-2.73-1.74.75-4.7-5-5s-11.5-6.59-20-10c-1.8-.71-8.89,1.4-10,0-3.32-4-6.92-7.39-20-10-13.59-2.72-27.61.7-40.06,0-11-.62-16.9-8.94-35-5-3.71.8-5.33,5.58-10,5-.06,0-1.37-4.81-5-5-4.08-.23-8.3-4.55-15-5-4-.31-7.92,6.12-15,5-.41-.06-1.1-4.81-5-5s-5.06,6-10,5c-.33-.06-1.46-4.55-5-5-10-1.34-13.67-.78-20-5-8.28-5.5-16.26-4.15-25-10-4.32-2.91-5.4-7-10-10-1-.68-4.14.83-5,0-.62-.63.73-4.6,0-5-2.52-1.46-7.29,1.14-10,0-1.14-.54-1.74-3.83-5-5-2.9-1.06-7.16,1.22-10,0-2.1-.92-.07-4.3-5-5,3.45.47-4.56,4.88-5,5-3.1.78-7-1-10,0-1.77.59-.07,4.75-5,5-11.11.55-12.52-3.71-20-5,1.52.28-2,5.6-5,5-1.15-.26,0-6.38-5-5,2-.56-5.1,5-5,5-1,.66-4.18-.85-5,0-.62.62.75,4.56,0,5-1.82,1-8.75-1.57-10,0-3.38,4.12-5.84,14.51-15,15-9.54.49-32.7.81-50.06,5-4.13,1-5.08,4.1-10,5-7.67,1.4-8.72,3.42-15,5-11.72,2.94-10,3.84-20,10-5.48,3.31-11.83,4.68-20.05,10-2.76,1.8.79,4.69-5,5-4.26.23-11.06,7.6-15,10-4.42,2.71-9.47,9.71-15,10,.06,0-13.71,4-15,5-4.32,3.28-5.82,11.76-10,15-.45.37-5.77,5.35-5,5-2.06.87-8.5-1.54-10,0s1.71,8.63,0,10c-.92.76-4.19-.86-5,0s.83,4.15,0,5-4.22-.85-5,0,.84,4.16,0,5-4.18-.86-5,0,.82,4.13,0,5-4.18-.86-5,0c-7,7.07-12.3,17.3-20,25-4.25,4.22-10.65,5.9-15,10-.85.79.82,4.18,0,5s-4.18-.84-5,0,.81,4.17,0,5-4.43-.8-5,0c-1.27,1.8,1.66,8.68,0,10-.56.5-4.69-.58-5,0-.86,1.83,1.47,8.83,0,10.05-.56.44-4.71-.61-5,0-3.25,7-1.44,12.89-5,20-1.13,2.32-9.09,3.11-10,5-2,4.08,1.91,10.93,0,15-1.15,2.4-4.74-.49-5,5-.18,4-4.56,5.14-5,10,.19-2.08,4.88,3,5,5,.39,6.89,3.21,27.33-5,15-6.95-10.43-5.38,2-10,25-3.63,18.1-8.82,28.35-5,50.05.86,4.7,6,7.5,5,15,.16-1.2-4.5,3-5,5-.64,2.62,1.36,7.74,0,10-.83,1.38-9.71,4-10,5-.75,2.59,6,8.94,5,15-.09.41-4.8,1.11-5,5-.39,7.66-1.29,17.48,0,25,.86,4.86,5.18,7.43,5,15,0-1-4.86,2.21-5,5-.06,1.15-6.74,8.61-5,10,.27.23,5-.16,5,0,.1,14.47.46,28.28-5,40-.91,2-3.9.61-5,5.05-2.59,10.31,3.74,13.31,5,20,.69,3.74-4,21.14,0,30,4.6,10.18,9.46-7.67,15,10-2.73,2-12.8-2.46-15,0-5.68,6.46,5.48,16.23,5,20.06-.33,2.75-4.95,6.07-5,5,.44,8.1,3.87,8.5,5,15,.75,4.32-1.67,11,0,15,.92,2.2,4.75-.3,5,5,.24,4.54,5.88,8.86,10,10,1.87-13.94-19.06-30.46-5-40,13,14.7,5.73,36.4,10,55,.23,1,4.8.66,5,5,.09,1.35-.49,3.82,0,5,1.23,3,4.66,4.06,5,5,1.58,4.34-1.81,10.76,0,15,.91,2,4.26.13,5,5,1.13,7.37-2.75,18.17,0,25,.83,2.11,4.71-.24,5,5,.43,8.38,14.17,14.6,20,25,3.79,6.69,1.66,12.8,5,20,6.89,14.79,26.83,26.53,50,30-1.39,10.15,2.44,13.62,5,20,.7,1.8-1.4,8.89,0,10,3.22,2.61,10.36,4.1,10,10,0-.63-4.86,1.89-5,5-.3,5.83,7.12,7.11,10,10,2.45,2.45,2.52,7.64,5,10,4.35,4.19,10.47,6,15,10,2.69,2.42,2.48,7.49,5,10,2.78,2.77,6.77,2.57,10,5,12.2,9.19,31.83,20.61,50.07,30,3.21,1.66,6.62,2.84,10,5,1.74,1.12,4.52,4.79,5,5,7.1,3.48,12.37,1.93,20,5,12.57,5.05,25.4,9.57,40,15,4.07,1.51,5.11,4.1,10,5,3,.59,7.12-1,10,0,1.89.69-.09,4.76,5,5,1.32.1,3.78-.47,5,0a275.94,275.94,0,0,0,30,10c4.4,1.13,10.89-1.75,15,0,2,.85.32,4.15,5,5,8.08,1.5,16.91-1.19,25,0,5.36.77,10.83,4.4,20,5,5.75.4,69.61,6.7,75.08,0,.31-.33,7.17-8.41,10-5,.21.26-.1,5,0,5,3.8-.39,5.54-4,10-5,12.56-2.73,54.48-1.55,65.1-5,1.69-.54.08-4.72,5-5,6.47-.34,6.2-7.9,10-10,6-3.4,14.38-.85,20-5,2.81-2.06-.84-4.66,5-5,6.44-.32,1.89-6.66,5-10,3.61-3.92,9.88-7.83,15-10-4.11,1.73,4.83,4.94,5,5,6.84,1.71,9.86-3.71,15-5,10.29-2.57,18.13-7,30-10,11.08-2.75,11.08-3.13,20-10,2.53-1.9,7.75-2.74,10-5,1.09-1.09,3.95-9.57,5-10,2.45-1.07,7.93,1.53,10,0,4.48-3.4,6-11,10-15,.84-.84,4.18.84,5,0s-.81-4.36,0-5c4.1-3.08,10.29-1.7,15-5,.81-.57-.71-4.28,0-5,4.29-4.29,13-3.89,20-10,4.36-3.84,5.88-10.92,10-15,8-8,15.91-12.85,25-25,1.87-2.53,2.75-7.77,5-10,.79-.77,4.35.83,5,0,6.34-8,13.85-21.07,20-30,1.93-2.83,4.69.8,5-5,.1-1.6,3.84-8.2,5-10,2.49-3.87,2.14-2.18,5-5,3.94-4,3.34-8.42,5-15,1.11-4.43,3.42-8.59,5-15,1.1-4.43,3.43-8.58,5-15,1.26-5.1,3.83-2.43,5-5,.84-1.78-1.44-8.82,0-10,.54-.46,4.77.56,5,0,3.72-9.13,5.78-19.74,10-30.05C985.48,723,989.35,714.5,992,706.4ZM776.83,221c-2.39,2.39-5.76-.94-5,5-.44-3.36,8,5.78,5,5,3.06.82,14.74-11.15,10-15C783.15,213,777.61,220.21,776.83,221ZM266.38,691.36c1.38,1.41,7.61-2.4,5-5C270,685,263.79,688.81,266.38,691.36Zm20,110.12c1.4,1.38,7.58-2.43,5-5C290,795.1,283.8,798.9,286.4,801.48Zm0,75.07c1.4,1.39,7.58-2.42,5-5C290,870.17,283.8,874,286.4,876.55Zm35-585.52c-5.78.32-2.27,2.29-5,5-.58.58-4.69-.7-5,0-4.95,10.28,1.25,22.52,5,25,19.13,12.77,34.84-20.2,25-30.05C339.63,289.23,324.31,290.88,321.43,291ZM451.53,166c-4.26-.94-4.72,1.93-5,5C450.81,171.85,451.27,169,451.53,166ZM301.43,561.27c26.52,5.44,5.89-15.2,0,0Zm-50.07,115.1c1.38,1.38,7.59-2.43,5-5C255,670,248.77,673.79,251.36,676.37Zm15,205.2c1.38,1.37,7.61-2.42,5-5C270,875.17,263.79,879,266.38,881.57Zm-20-330.31c0,11.28,15.21-.47,10-5C253.68,543.91,246.37,549.16,246.37,551.26Zm15-30c4.35-33.74-32.2,2.83,0,0Zm40-50.05c-1.39-1.37-7.61,2.43-5,5C297.78,477.61,304,473.81,301.43,471.18ZM441.55,170.92c-3.47,4.07-7.8,13.72,0,15,2.63-4,5.2-8.1,5-15Zm-30,325.29c1.38,1.39,7.58-2.41,5-5C415.14,489.84,408.91,493.64,411.51,496.21Zm25-360.3c-3.67-3-9.24,4.19-10,5C407.17,161.72,447.39,144.76,436.53,135.91Zm15,30c7.29-3.12-.5-6,0,0Zm-40,350.28c-4.38,19,2.67,25,5,15C417.34,527.77,414.78,502.12,411.51,516.23Zm-10,310.27c-1.38-1.37-7.61,2.44-5,5C397.89,832.91,404.07,829.1,401.5,826.5Zm-20-80.06c1.38,1.39,7.58-2.41,5-5C385.1,740.06,378.89,743.87,381.49,746.44Zm15,195.14c1.38,1.39,12.35-2.62,10-5C405.11,935.21,394.15,939.23,396.51,941.58Zm-30-80c1.39,1.38,7.58-2.43,5-5C370.08,855.14,363.87,859,366.47,861.54Z"/><text class="cls-2" transform="translate(268.23 668.56)">T M</text></g></g></svg>